<svg width="37" height="37" viewBox="0 0 37 37" fill="none" xmlns="http://www.w3.org/2000/svg">
<path d="M16.0117 26.857L28.7467 14.122L26.6767 12.097L16.0117 22.762L10.6117 17.362L8.58667 19.387L16.0117 26.857ZM18.6667 36.667C16.2067 36.667 13.8817 36.1945 11.6917 35.2495C9.50167 34.3045 7.58917 33.0145 5.95417 31.3795C4.31917 29.7445 3.02917 27.832 2.08417 25.642C1.13917 23.452 0.666672 21.127 0.666672 18.667C0.666672 16.177 1.13917 13.837 2.08417 11.647C3.02917 9.45699 4.31917 7.55199 5.95417 5.93199C7.58917 4.31199 9.50167 3.02949 11.6917 2.08449C13.8817 1.13949 16.2067 0.666992 18.6667 0.666992C21.1567 0.666992 23.4967 1.13949 25.6867 2.08449C27.8767 3.02949 29.7817 4.31199 31.4017 5.93199C33.0217 7.55199 34.3042 9.45699 35.2492 11.647C36.1942 13.837 36.6667 16.177 36.6667 18.667C36.6667 21.127 36.1942 23.452 35.2492 25.642C34.3042 27.832 33.0217 29.7445 31.4017 31.3795C29.7817 33.0145 27.8767 34.3045 25.6867 35.2495C23.4967 36.1945 21.1567 36.667 18.6667 36.667ZM18.6667 33.967C22.9267 33.967 26.5417 32.4745 29.5117 29.4895C32.4817 26.5045 33.9667 22.897 33.9667 18.667C33.9667 14.407 32.4817 10.792 29.5117 7.82199C26.5417 4.85199 22.9267 3.36699 18.6667 3.36699C14.4367 3.36699 10.8292 4.85199 7.84417 7.82199C4.85917 10.792 3.36667 14.407 3.36667 18.667C3.36667 22.897 4.85917 26.5045 7.84417 29.4895C10.8292 32.4745 14.4367 33.967 18.6667 33.967Z" fill="#22C55E"/>
</svg>
