<svg width="37" height="37" viewBox="0 0 37 37" fill="none" xmlns="http://www.w3.org/2000/svg">
<path d="M18.6667 36.667C16.1767 36.667 13.8367 36.1945 11.6467 35.2495C9.45666 34.3045 7.55166 33.022 5.93166 31.402C4.31166 29.782 3.02916 27.877 2.08416 25.687C1.13916 23.497 0.666656 21.157 0.666656 18.667C0.666656 16.177 1.13916 13.837 2.08416 11.647C3.02916 9.45699 4.31166 7.55199 5.93166 5.93199C7.55166 4.31199 9.45666 3.02949 11.6467 2.08449C13.8367 1.13949 16.1767 0.666992 18.6667 0.666992C21.1567 0.666992 23.4967 1.13949 25.6867 2.08449C27.8767 3.02949 29.7817 4.31199 31.4017 5.93199C33.0217 7.55199 34.3042 9.45699 35.2492 11.647C36.1942 13.837 36.6667 16.177 36.6667 18.667C36.6667 21.157 36.1942 23.497 35.2492 25.687C34.3042 27.877 33.0217 29.782 31.4017 31.402C29.7817 33.022 27.8767 34.3045 25.6867 35.2495C23.4967 36.1945 21.1567 36.667 18.6667 36.667ZM18.6667 33.967C22.9379 33.967 26.5557 32.4848 29.5201 29.5205C32.4845 26.5561 33.9667 22.9382 33.9667 18.667C33.9667 16.8471 33.6517 15.0947 33.0217 13.4096C32.3917 11.7245 31.5067 10.192 30.3667 8.81199L8.81166 30.367C10.1617 31.537 11.6841 32.4295 13.3788 33.0445C15.0737 33.6595 16.8363 33.967 18.6667 33.967ZM7.01166 28.522L28.5217 7.01199C27.1417 5.84199 25.6091 4.94199 23.9241 4.31199C22.239 3.68199 20.4865 3.36699 18.6667 3.36699C14.3954 3.36699 10.7776 4.84917 7.8132 7.81353C4.84884 10.7779 3.36666 14.3957 3.36666 18.667C3.36666 20.4974 3.69666 22.26 4.35666 23.9548C5.01666 25.6496 5.90166 27.172 7.01166 28.522Z" fill="#EF4444"/>
</svg>
